<svg viewBox="0 0 439 258" xmlns="http://www.w3.org/2000/svg">
		<path fill="currentColor"
			d="M142.094 15.202c6.808.538 10.158.888 16.829 1.688 2.167.275 4.23-.675 4.592-2.138 1.166-4.479 1.758-6.737 2.891-11.262.375-1.475 1.471-1.334 2.396.316a444.5 444.5 0 017.159 12.721c.925 1.675 3.404 3.271 5.5 3.696 6.233 1.27 8.508 1.838 16.058 3.854 2.08.559 2.412 1.504.904 2.034-4.642 1.608-7.037 2.045-11.825 4-1.542.612-2.1 2.516-1.25 4.208 2.583 5.15 3.8 7.904 6.183 13.417.792 1.808.042 2.008-1.662.495-5.238-4.608-7.967-6.333-13.47-10.195-1.83-1.275-4.58-1.742-6.138-1.08-4.696 2.042-7.038 3.475-11.805 5.613-1.562.712-2.5.108-2.104-1.308 1.234-4.375 1.846-6.942 3.042-11.309.383-1.425-.854-3.554-2.758-4.679-5.9-3.517-8.9-5.208-14.955-8.458-1.966-1.067-1.791-1.78.413-1.613zM75.756 63.74c8.117-1.696 10.621-2.096 18.3-3.192 2.3-.325 4.63-1.704 5.184-3.212 1.67-4.68 2.454-6.996 4.096-11.605.529-1.483 1.658-1.558 2.495-.179 2.65 4.342 3.95 6.53 6.513 10.959.837 1.437 3.329 2.695 5.496 2.566 7.216-.429 8.887-.854 16.216-1.212 2.109-.104 2.38.72.88 1.691-5.621 3.646-7.334 5.138-12.317 8.138-1.592.962-2.383 2.762-1.575 4.27 2.425 4.517 3.625 6.813 5.958 11.488.775 1.538-.062 1.959-1.866.946-5.455-3.083-8.23-4.508-13.921-7.092-1.884-.879-4.834-.741-6.571.296-5.263 3.146-7.025 4.28-14.096 8.709-1.963 1.225-2.925 1.033-2.192-.855 2.292-5.87 3.084-7.287 4.967-11.979.612-1.525-.575-3.346-2.563-3.954-6.141-1.883-9.262-2.683-15.658-3.987-2.07-.417-1.783-1.242.654-1.796zM40.685 125.298c7.421-.612 10.984-.746 17.884-.766 2.246-.009 4.962-1.225 6.079-2.759 3.48-4.717 5.192-7.05 8.604-11.675 1.1-1.487 2.158-1.433 2.383.133.634 4.842.946 7.288 1.463 12.217.17 1.588 2.008 3.03 4.017 3.309 6.983.97 8.095 1.158 15.141 2.466 1.9.354 1.946 1.204.13 1.821-5.634 1.875-8.513 2.925-14.43 5.192-1.908.741-3.633 2.712-3.604 4.333.033 4.992.038 7.504-.029 12.588-.038 1.675-1.033 2.058-2.25.866-3.725-3.583-5.642-5.337-9.654-8.687-1.321-1.084-4.146-1.225-6.263-.321-6.462 2.8-9.741 4.3-16.379 7.404-2.187 1.02-2.954.575-1.642-1.05 3.909-4.904 5.88-7.342 9.721-12.167 1.288-1.579 1.1-3.654-.387-4.566-4.65-2.846-7.054-4.159-12.15-6.567-1.65-.767-1.013-1.575 1.366-1.77zM159.744 207.357c-4.871 2.779-7.538 4.6-12.713 8.237-1.675 1.18-2.716 3.72-2.287 5.63 1.304 5.837 1.92 8.812 3.154 15.04.404 2.038-.47 2.7-1.933 1.46-4.446-3.813-6.675-5.626-11.138-9.138-1.475-1.167-4.096-1.021-5.825.325-5.266 4.058-7.912 6.154-13.262 10.458-1.767 1.433-2.5.842-1.675-1.254 2.529-6.383 3.77-9.483 6.212-15.542.813-1.983.234-4.437-1.291-5.458-4.65-3.12-7.009-4.62-11.746-7.454-1.546-.917-1.138-1.867.875-2.138 6.262-.791 9.354-1.104 15.496-1.596 1.995-.166 4.25-1.804 4.995-3.641 2.346-5.746 3.509-8.55 5.746-13.938.73-1.766 1.709-1.779 2.175-.083 1.434 5.25 2.138 7.92 3.538 13.42.446 1.78 2.42 3.21 4.354 3.176 6-.13 9-.254 14.829.429 1.896.2 2.07 1.175.496 2.067zM239.769 216.386c-4.275 1.404-6.417 2.166-10.75 3.725-1.42.504-2.075 2.346-1.45 4.087 1.9 5.275 2.875 7.909 4.867 13.2.67 1.738-.059 2.054-1.617.675-4.692-4.154-7-6.275-11.55-10.562-1.517-1.413-3.9-2.096-5.354-1.48-4.409 1.859-6.638 2.834-11.18 4.959-1.504.704-2.262-.033-1.7-1.625 1.755-4.8 2.596-7.108 4.259-11.642.55-1.5-.208-3.866-1.663-5.296-4.445-4.425-6.645-6.654-11.02-11.079-1.405-1.441-1.121-2.17.633-1.616 5.442 1.716 8.167 2.579 13.583 4.333 1.746.575 3.596-.117 4.117-1.496 1.587-4.308 2.367-6.387 3.892-10.496.487-1.308 1.341-1.008 1.9.692 1.733 5.23 2.616 7.858 4.404 13.154.579 1.708 2.491 3.596 4.258 4.154 5.463 1.796 8.17 2.68 13.646 4.454 1.767.575 2.096 1.4.725 1.859zM311.59 195.16c-4.792 1.834-7.017 2.788-11.65 4.597-1.496.575-2.071 2.412-1.25 4.095 2.45 5.088 3.708 7.63 6.32 12.642.846 1.63.084 1.992-1.708.717-5.433-3.859-8.1-5.788-13.254-10.434-1.704-1.525-4.258-2.425-5.72-1.95-4.417 1.405-6.622 2.092-11.013 3.53-1.459.475-2.292-.317-1.875-1.746 1.329-4.338 1.987-6.471 3.308-10.709.463-1.412-.533-3.791-2.125-5.354-4.97-4.833-7.42-7.32-12.22-12.2-1.559-1.604-1.33-2.27.524-1.525 5.704 2.346 8.546 3.492 14.325 5.696 1.871.73 3.792.196 4.23-1.15 1.383-4.242 2.1-6.342 3.541-10.542.463-1.366 1.383-1 2.075.763 2.117 5.5 3.217 8.258 5.454 13.75.738 1.783 2.888 3.75 4.846 4.412 5.971 2.013 9.092 2.359 15.321 3.63 2.008.379 2.392 1.183.87 1.779zM358.44 147.469c-4.567 3.18-6.813 4.65-11.246 7.354-1.408.875-2.05 2.671-1.408 3.996a406.63 406.63 0 005.041 9.908c.696 1.3-.037 1.659-1.583.821-4.68-2.512-6.975-3.883-11.492-6.804-1.495-.962-3.8-1.262-5.158-.65-4.104 1.867-6.12 2.738-10.112 4.446-1.321.567-2.042.017-1.609-1.204 1.271-3.717 1.93-5.575 3.271-9.334.43-1.233-.358-3.141-1.804-4.25-4.363-3.445-6.488-5.47-10.717-9.179-1.379-1.2-1.158-1.816.513-1.441 5.1 1.262 7.683 1.82 12.946 2.72 1.725.28 3.508-.645 3.975-2.054 1.47-4.375 2.225-6.587 3.745-11.15.509-1.454 1.371-1.379 1.934.167 1.758 4.825 2.7 7.22 4.516 12 .584 1.542 2.53 2.929 4.321 3.004 5.554.254 8.367.275 14.15-.042 1.867-.091 2.175.646.717 1.692zM396.47 75.19c-4.388 4.591-6.593 6.854-10.972 11.22-1.412 1.392-2.17 3.58-1.7 4.859 1.484 3.846 2.234 5.742 3.817 9.43.504 1.195-.204 1.932-1.604 1.587-4.259-1.03-6.33-1.65-10.375-3.117-1.317-.483-3.538.17-4.909 1.45-4.195 3.867-6.404 5.758-10.291 9.187-1.263 1.117-1.913.78-1.459-.691 1.4-4.55 2.509-7.004 4.209-11.796.57-1.588-.009-3.375-1.28-3.975-3.887-1.913-5.787-2.97-9.545-5.175-1.213-.713-.934-1.488.625-1.73 4.85-.787 7.296-1.262 12.283-2.445 1.613-.4 3.417-2.096 4.004-3.738 1.788-5.12 2.675-7.7 4.513-12.958.57-1.717 1.404-1.97 1.812-.558 1.267 4.366 1.934 6.5 3.275 10.679.442 1.346 2.192 1.987 3.863 1.417 5.204-1.805 7.85-2.8 13.17-5.034 1.738-.691 1.996-.079.563 1.388zM313.777 27.573c4.5.383 6.242.275 11.513.1 1.533-.054 3.12-1.37 3.546-2.983 1.304-4.975 1.975-7.55 3.325-12.884.441-1.716 1.216-1.812 1.72-.22a497.135 497.135 0 003.905 11.97c.504 1.492 2.166 2.43 3.729 2.43 4.196 0 6.867-.134 12.133-.4 1.584-.08 1.938.545.571 1.62-3.867 3.042-5.867 4.088-9.654 7.113-1.296 1.033-1.796 3.17-1.28 4.58 1.58 4.25 2.38 6.332 3.992 10.407.534 1.35-.066 1.863-1.35 1.184-3.875-2.088-5.804-3.171-9.654-5.459-1.266-.75-3.279-.533-4.466.446-3.592 3.004-5.367 4.45-8.88 7.159-1.145.875-1.775.362-1.4-.992 1.138-4.075 1.717-6.238 2.93-10.7.4-1.463-.346-3.283-1.567-4.158-3.933-2.821-5.783-4.413-9.558-7.575-1.238-1.038-1.034-1.771.445-1.638zM230.377 11.49c5.3 1.516 7.93 2.279 13.159 3.812 1.729.484 3.483-.212 3.933-1.55 1.433-4.191 2.142-6.333 3.63-10.766.47-1.409 1.366-1.221 1.945.47 1.796 5.246 2.658 7.871 4.383 13.067.546 1.683 2.375 3.446 4.063 3.946 5.262 1.525 7.858 2.258 13.104 3.742 1.7.487 1.95 1.341.554 1.929-4.279 1.766-6.358 2.591-10.52 4.15-1.347.504-2.005 2.25-1.492 3.9 1.583 5.025 2.35 7.491 3.908 12.408.504 1.608-.167 1.846-1.483.483-3.98-4.079-6.005-6.133-10.08-10.216-1.337-1.338-3.52-2.063-4.816-1.621a301.03 301.03 0 01-9.771 3.17c-1.263.413-1.97-.262-1.538-1.483 1.3-3.695 1.975-5.562 3.305-9.404.437-1.262-.342-3.383-1.73-4.687-4.329-4.042-6.541-6.038-11.008-9.93-1.458-1.287-1.25-1.9.454-1.42zM437.69 8.352c-3.854 3.509-5.875 5.325-10 9.104-1.346 1.23-2.092 3.113-1.63 4.142 1.41 3.142 2.147 4.654 3.71 7.554.52.946-.18 1.613-1.555 1.45-4.142-.462-6.167-.804-10.17-1.6-1.322-.262-3.534.567-4.96 1.875-4.3 3.946-6.474 5.946-10.87 9.925-1.442 1.288-2.108 1.138-1.48-.37 1.926-4.563 2.897-6.867 4.784-11.434.638-1.492.113-3.037-1.15-3.442-3.892-1.187-5.783-1.879-9.558-3.375-1.213-.491-.888-1.27.754-1.745 5.012-1.425 7.53-2.192 12.55-3.75 1.63-.509 3.446-2.167 4.08-3.675 1.895-4.696 2.862-7.034 4.724-11.73.63-1.512 1.392-1.712 1.742-.458 1.062 3.813 1.633 5.654 2.85 9.22.396 1.15 2.008 1.63 3.604 1.134 4.912-1.629 7.337-2.425 12.062-3.95 1.525-.496 1.759.013.513 1.125zM267.59 91.769c2.812-.754 3.208-2.188-.113-2.013-5.704.288-72.112 15.575-129.675 49.15-62.633 36.542-81.567 54.742-94.942 65.109-3.541 2.742-6.158 2.787-6.787 1.112-2.133-5.695-3.475-8.945-5.213-14.283-.533-1.625-2.075-1.446-2.762.825-2.346 7.738-3.463 12.458-5.75 19.433-.725 2.242-1.492 4.692-5.646 7.588-8.225 5.72-9.933 6.833-15.058 10.325-1.859 1.267-2.821 2.658.891 3.33 3.567.645 4.275.782 9.092 1.67 3.85.704 2.58 3.308 2.033 5.575-1.562 6.475-2.237 9.08-4.316 15.737-.704 2.184.196 2.467 1.979.605 5.475-5.717 7.25-7.642 13.025-13.659 2.175-2.27 4.212-4.87 6.5-4.458 5.646 1.017 6.325 1.187 14.237 2.683 3.509.663 3.484-.95 2.555-3.258-2.713-6.708-2.209-5.83-4.267-11.504-.654-1.813-.77-5.204 1.283-7.2 32.996-32.109 46.659-42.596 92.017-72.18 35.525-23.17 82.742-41.579 130.917-54.587z"/>
</svg>
